<?xml version="1.0" encoding="UTF-8"?>
<svg xmlns="http://www.w3.org/2000/svg" xmlns:svg="http://www.w3.org/2000/svg" xmlns:sodipodi="http://sodipodi.sourceforge.net/DTD/sodipodi-0.dtd" xmlns:rdf="http://www.w3.org/1999/02/22-rdf-syntax-ns#" xmlns:inkscape="http://www.inkscape.org/namespaces/inkscape" xmlns:dc="http://purl.org/dc/elements/1.1/" xmlns:cc="http://creativecommons.org/ns#" version="1.1" viewBox="0 0 1096.6 500">
  <defs>
    <style>
      .cls-1 {
        fill: #9aa6b2;
      }
    </style>
  </defs>
  <!-- Generator: Adobe Illustrator 28.6.0, SVG Export Plug-In . SVG Version: 1.1.0 Build 92)  -->
  <g>
    <g id="svg4545">
      <sodipodi:namedview id="base" bordercolor="#666666" borderopacity="1.0" fit-margin-bottom="0" fit-margin-left="0" fit-margin-right="0" fit-margin-top="0" inkscape:current-layer="layer1" inkscape:cx="659.48623" inkscape:cy="-274.8781" inkscape:document-units="px" inkscape:pageopacity="0.0" inkscape:pageshadow="2" inkscape:window-height="990" inkscape:window-maximized="1" inkscape:window-width="1680" inkscape:window-x="-4" inkscape:window-y="-4" inkscape:zoom="0.35" pagecolor="#ffffff" showgrid="false"/>
      <g id="layer1" inkscape:groupmode="layer" inkscape:label="Ebene 1">
        <g id="g1158">
          <g id="g1160">
            <g id="g1166">
              <path id="path1168" class="cls-1" d="M93.5,119.1h-26.3v96.2c6.4,1.3,17.9,2.4,27.7,2.4,35.8,0,51.6-19.2,51.6-50.3,0-28.7-15.5-48.2-53-48.2M94.8,109.6c25.6,0,40.8-16.5,40.8-45.9s-21.6-43.5-43.2-43.5-18.9.7-25.3,2v87.4s27.7,0,27.7,0ZM108.3,226.4H-.3v-5.7l33.7-6.1V23.3L-.3,17.2v-5.7h99.9c46.9,0,71.2,21.3,71.2,48.2s-14.8,43.2-48.6,50.3v1.7c42.8,4.7,62.8,28.3,62.8,53s-28,61.7-76.6,61.7" inkscape:connector-curvature="0"/>
            </g>
            <g id="g1170">
              <path id="path1172" class="cls-1" d="M355.6,216.3v3.4l-47.2,11.8-1.4-.7.7-26.6-1.4-.7c-20.2,18.9-39.5,28.3-57.7,28.3-30.4,0-41.5-22.9-41.5-46.9v-88.4l-21.9-11.8v-3l49.3-12.2,1.3,1v99.9c0,26,9.1,38.1,31.4,38.1s24.3-3,37.8-10.8v-101.3l-22.3-11.8v-3l49.3-12.2,1.4,1v137l22.3,8.8Z" inkscape:connector-curvature="0"/>
            </g>
            <g id="g1174">
              <path id="path1176" class="cls-1" d="M406.2,231.5c-16.9,0-30.7-2.4-46.2-9.1v-42.5l7.1-.7c11.1,31.1,26.6,43.9,44.9,43.9s29.4-10.5,29.4-28.3-17.9-25.3-36.8-33.1c-20.6-8.8-42.2-18.5-42.2-44.9s20.6-47.2,53-47.2,30.7,3,39.8,6.4l1,38.1-6.1,1.7c-13.2-27-26-37.8-40.8-37.8s-25.3,8.8-25.3,23,18.2,25.3,37.4,33.4c20.9,8.8,43.2,18.6,43.2,45.9s-25.3,51.3-58.4,51.3" inkscape:connector-curvature="0"/>
            </g>
            <g id="g1178">
              <path id="path1180" class="cls-1" d="M512.5,0c10.5,0,18.2,7.8,18.2,18.2s-8.8,20.6-20.2,20.6-17.9-7.8-17.9-18.5,8.8-20.2,19.9-20.2M475.1,84.7v-3.1l49.3-12.1,1.3,1v145.4l22.6,6.1v4.4h-74.5v-4.4l23.6-6.1v-117.1l-22.3-14.2h0Z" inkscape:connector-curvature="0"/>
            </g>
            <g id="g1182">
              <path id="path1184" class="cls-1" d="M701.8,216l22.3,6.1v4.4h-71.9v-4.4l21.3-6.1v-84.7c0-25.6-9.1-37.8-31.7-37.8s-24.3,2.7-37.8,10.4v112l20.9,6.1v4.4h-71.9v-4.4l22.3-6.1v-117.1l-21.9-14.2v-3.1l47.2-12.1,1.4,1-.7,27,1.4.7c20.2-18.9,39.5-28.3,57.7-28.3,30.4,0,41.5,22.9,41.5,46.9v99.2Z" inkscape:connector-curvature="0"/>
            </g>
            <g id="g1186">
              <path id="path1188" class="cls-1" d="M831.4,125.9c-2.4-29-11.8-48.6-32.7-48.6s-39.1,20.2-41.2,51l73.9-2.4ZM757.1,135.3c0,44.9,15.2,75.6,53.3,75.6s30.4-3.7,49.6-13.5l2,4.1c-20.9,19.9-39.8,30.4-61.7,30.4-43.2,0-73.9-31.7-73.9-78.6s32.7-83.3,74.6-83.3,62.8,28,62.8,65.5c0,0-106.6,0-106.6,0Z" inkscape:connector-curvature="0"/>
            </g>
            <g id="g1190">
              <path id="path1192" class="cls-1" d="M921.8,231.5c-16.9,0-30.7-2.4-46.2-9.1v-42.5l7.1-.7c11.1,31.1,26.6,43.9,44.9,43.9s29.4-10.5,29.4-28.3-17.9-25.3-36.8-33.1c-20.6-8.8-42.2-18.5-42.2-44.9s20.6-47.2,53-47.2,30.7,3,39.8,6.4l1,38.1-6.1,1.7c-13.2-27-26-37.8-40.8-37.8s-25.3,8.8-25.3,23,18.2,25.3,37.5,33.4c20.9,8.8,43.2,18.6,43.2,45.9s-25.3,51.3-58.4,51.3" inkscape:connector-curvature="0"/>
            </g>
            <g id="g1194">
              <path id="path1196" class="cls-1" d="M1038.2,231.5c-16.9,0-30.7-2.4-46.2-9.1v-42.5l7.1-.7c11.1,31.1,26.6,43.9,44.9,43.9s29.4-10.5,29.4-28.3-17.9-25.3-36.8-33.1c-20.6-8.8-42.2-18.5-42.2-44.9s20.6-47.2,53-47.2,30.7,3,39.8,6.4l1,38.1-6.1,1.7c-13.2-27-26-37.8-40.8-37.8s-25.3,8.8-25.3,23,18.2,25.3,37.5,33.4c20.9,8.8,43.2,18.6,43.2,45.9s-25.3,51.3-58.4,51.3" inkscape:connector-curvature="0"/>
            </g>
            <g id="g1198">
              <path id="path1200" class="cls-1" d="M90.4,288.4c-8.4,0-16.5.7-23.3,2v99.6c6.1,1,12.5,1.7,22.6,1.7,31,0,47.2-16.9,47.2-51.9s-16.6-51.3-46.6-51.3M102.6,401.1c-11.1,0-24.6-1.4-35.4-3v84.7l33.4,6.1v5.7H0v-5.7l33.4-6.1v-191.3l-33.4-6.1v-5.7h97.5c51.6,0,77.3,26,77.3,59s-23.3,62.4-72.2,62.4" inkscape:connector-curvature="0"/>
            </g>
            <g id="g1202">
              <path id="path1204" class="cls-1" d="M350.9,484.5v3.4l-47.2,11.8-1.4-.7.7-26.6-1.4-.7c-20.2,18.9-39.5,28.3-57.7,28.3-30.4,0-41.5-22.9-41.5-46.9v-88.4l-21.9-11.8v-3l49.3-12.2,1.4,1v99.9c0,26,9.1,38.1,31.4,38.1s24.3-3,37.8-10.8v-101.2l-22.3-11.8v-3l49.3-12.2,1.4,1v137l22.3,8.8Z" inkscape:connector-curvature="0"/>
            </g>
            <g id="g1206">
              <path id="path1208" class="cls-1" d="M501.1,484.1l22.3,6.1v4.4h-71.9v-4.4l21.3-6.1v-84.7c0-25.6-9.1-37.8-31.7-37.8s-24.3,2.7-37.8,10.4v112l20.9,6.1v4.4h-71.9v-4.4l22.3-6.1v-117.1l-21.9-14.2v-3l47.2-12.1,1.4,1-.7,27,1.4.7c20.2-18.9,39.5-28.3,57.7-28.3,30.4,0,41.5,22.9,41.5,46.9v99.2Z" inkscape:connector-curvature="0"/>
            </g>
            <g id="g1210">
              <path id="path1212" class="cls-1" d="M667.1,483.1l18.9,7.1v4.4h-66.1v-4.4l13.5-7.1-44.2-62.1h-13.5v63.1l18.9,6.1v4.4h-71.2v-4.4l23.6-6.1v-208.5l-24.7-14.5v-3.4l52-13.2,1.4.7v165.7h15.2l44.2-52.3-17.9-11.8v-3.4h62.1v4.4l-22.6,8.8-48.6,49.3,59.1,77.3Z" inkscape:connector-curvature="0"/>
            </g>
          </g>
        </g>
      </g>
    </g>
  </g>
</svg>