<?xml version="1.0" encoding="UTF-8"?>
<svg xmlns="http://www.w3.org/2000/svg" xmlns:svg="http://www.w3.org/2000/svg" version="1.1" viewBox="0 0 564.9 124.4">
  <defs>
    <style>
      .cls-1 {
        fill: #9aa6b2;
      }
    </style>
  </defs>
  <!-- Generator: Adobe Illustrator 28.6.0, SVG Export Plug-In . SVG Version: 1.1.0 Build 92)  -->
  <g>
    <g id="svg1962">
      <g id="layer1">
        <g id="g2427">
          <path id="path5" class="cls-1" d="M250.3,3.1v6.3c1.8.1,3.7-.3,5.5.3,1.6.6,1.8,2.5,1.9,4.1.1,7.3,0,14.6,0,21.8,0,26.5,0,53.1,0,79.6,0,1.3-.8,2.4-2.1,2.5-1.8.3-3.6,0-5.3.2v6.4h35.4v-6.4c-1.9-.1-3.8.2-5.7-.2-1.6-.5-1.9-2.4-2-3.9-.1-5.9,0-11.9,0-17.8v-29.2h23.3c0,15.4,0,30.8,0,46.2-.1,1.6-.2,3.6-1.8,4.5-1.7.7-3.6.3-5.4.4-1-.2-.4,1.1-.5,1.7v4.7h35.2v-6.4c-1.8-.1-3.7.3-5.4-.3-1.7-.8-1.8-2.9-1.8-4.6-.1-6.1,0-12.3,0-18.4,0-26.4,0-52.8,0-79.2.1-1.8,0-4.2,1.4-5.4,1.6-1,3.6-.4,5.4-.6.9.2.3-1.3.5-1.9V3h-35.2v6.4c1.9,0,3.8-.2,5.6.2,1.6.5,2,2.5,2.1,4,.2,4.5,0,9.1,0,13.6v32h-23.3c0-15,0-30,0-45,0-1.4.2-3.1,1.1-4.1,1.5-1.3,3.6-.7,5.3-.8.9.1,1.6,0,1.3-1V3h-35.4Z"/>
          <path id="path41" class="cls-1" d="M108.4,68.5c.5-27.5,1.4-30.5,7-30.5s5.6,3.6,5.6,30.5h-12.5ZM115.4,124.5c15.2,0,22.9-6.5,21-30h-6.5c.5,19.8-2.8,21.7-10.1,21.7-10.7,0-11.4-5.6-11.4-38.4v-2.8h29.5c0-33.1-6.3-44.5-22.6-44.5s-26.6,15.9-26.6,47.6c0,34.8,10.7,46.4,26.6,46.4ZM225.6,124.5c13.3,0,20.7-9,20.7-22.6s-4.9-20.4-15.2-31.7c-9.7-10.7-13.5-14.7-13.5-23.5s1.7-8.4,7.6-8.4,9.3,2.3,10.4,11.3l1.1,8.7h6.8v-26.3h-5.6c-.3,3.2-.3,5.1-1.2,4.6-1.4-1.2-6.8-6.2-14.5-6.2s-20.3,6.8-20.3,21.8,4.8,19.6,15.2,31.4c9,10.2,13.5,14.7,13.5,23s-1.9,10.4-8.8,10.4-9.7-2.8-11.6-14.5l-1.2-8h-6.8v28.5h5.7c.6-2.9,2.2-5.7,3.6-4.8,2,2.3,6.7,6.3,14.2,6.3ZM352.6,124.5c15.2,0,22.9-6.5,21-30h-6.5c.5,19.8-2.8,21.7-10.1,21.7-10.7,0-11.4-5.6-11.4-38.4v-2.8h29.5c0-33.1-6.3-44.5-22.6-44.5s-26.6,15.9-26.6,47.6,10.7,46.4,26.6,46.4ZM137.8,123h28.2v-6.2h-1.7c-2,0-2.3-.5-2.3-2.3v-59.2c0-7.6,1.2-13.5,7.9-13.5s5.3,2.9,5.3,9.3v63c0,2.3-1.1,2.8-2.8,2.8h-1.7v6.2h26.8v-6.2h-1.4c-2.2,0-2.8-.6-2.8-3.1V47.6c0-11.1-4-17.2-15-17.2s-12.5,4.2-16.6,10.5v-10.1l-24,1.7v6.2h3.1c2,0,3.1.9,3.1,4.3v70.1c0,2.8-.6,3.6-3.1,3.6h-2.9v6.2h0ZM472.3,104.3c0,14.7,2,20.3,16.6,20.3s15.8-4,15.8-17.5v-13.1h-6.6v14.5c0,5.4-.8,7.6-3.9,7.6s-3.7-2.2-3.7-7V38.8h13.9v-6.8h-13.8V8h-6.3c-7.1,21.5-10.4,24-16.2,24h-1.9v6.6h6.2v65.6h0ZM438.6,123h28.6v-6.2h-3.7c-2,0-2.8-.8-2.8-3.3V0l-24.3,1.9v6.2h3.4c2,0,2.8.6,2.8,3.1v102.7c0,2.3-.3,2.9-2.5,2.9h-1.5v6.2h0ZM507.3,123h26.1v-6.2h-1.7c-2,0-2.3-.5-2.3-2.3v-59.2c0-7.6,1.2-13.5,7.9-13.5s5.3,2.9,5.3,9.3v63c0,2.3-1.1,2.8-2.8,2.8h-1.7v6.2h26.8v-6.2h-1.4c-2.2,0-2.8-.6-2.8-3.1V47.6c0-11.1-4-17.2-15-17.2s-12.2,4.2-16.2,10.5V0l-24.3,1.9v6.2h3.1c2,0,3.1.9,3.1,4.3v100.9c0,2.8-.6,3.6-3.1,3.6h-.9v6.2h0ZM197.9,35.1c15.5-11.6,18.6-20.3,13.5-28.1-2.8-4.3-9.1-7.1-13.8-3.2-5.6,4.6-4.2,12.8,6.2,17.3-1.9,2.2-6.2,6.5-9.7,9.9l3.9,4.2ZM345.7,68.5c.5-27.5,1.4-30.5,7-30.5s5.6,3.6,5.6,30.5h-12.5ZM0,2.1h29.5l16,76.1h0c0,0,.4,0,.4,0h0c0,0,15.1-76.2,15.1-76.2h28.7v5.8h-2.4c-1.6,0-2.7.7-3.4,2s-.9,3.4-.9,6.2v92.6c0,2.8.2,4.8.9,6.2s1.8,2,3.4,2h2.4v5.8h-34.4v-5.8h4.1c1.6,0,2.7-.7,3.3-2s.9-3.4.9-6.2V29.4h0s-.2,0-.2,0h-.2s0,0,0,0h0v.2l-19.4,93.1h-9L15.5,29.7h0s-.2,0-.2,0h-.2v77.5c0,2.8.4,5.2,1.2,6.9s2.2,2.8,3.9,2.8h3.5v5.8H0v-5.8h2.3c1.6,0,3-1.1,3.8-2.8s1.3-4.1,1.3-6.9V17.5c0-2.9-.5-5.3-1.3-7s-2.2-2.7-3.8-2.7H0V2.1Z"/>
        </g>
      </g>
      <path class="cls-1" d="M432.1,106.5c0,2.9.1,5.9-.5,8.8-.2,1.2-1.8,1.5-2.8,1.1-.9-.9-.6-2.3-.7-3.4,0-19.8,0-39.6,0-59.4,0-5.3-1-10.9-4.4-15.2-1.6-2-3.7-3.6-6.1-4.6-4.3-1.9-9.1-2.3-13.8-2.1-5.1.2-10.3,1.7-14.4,4.8-1.8,1.6-3.5,3.4-4.4,5.6-1.9,4.1-1.3,9,.9,12.8.8,1.4,2,2.6,3.4,3.5,2.2,1.2,5,1.3,7.2.2,1.7-.8,3-2.1,3.9-3.7,1.4-2.8.6-6.4-1.6-8.6-1.8-2.2-4.3-3.8-6.8-5.1,2.2-1.6,5.1-2.1,7.8-2.4,2.4-.1,5-.1,7.2,1,1,.6,1.7,1.4,2.1,2.5,1,3.3.5,6.8.6,10.1v13.5c-5.4,1.8-10.8,3.7-15.9,6.3-4.1,2.1-7.9,5.1-10.3,9.1-2.8,5-3.5,10.8-3.8,16.5-.2,6,0,12.1,1.9,17.8.9,2.6,2.3,5,4.3,6.9,2.7,2.6,6.7,3.5,10.4,3.2,3.7-.2,7.3-1.6,9.9-4.2,2.1-1.9,3.7-4.2,5-6.7.6,2.5,1.2,5.1,2.8,7.2,1.4,1.8,3.5,2.9,5.7,3.3,3.7.6,7.8.6,11.3-.9,2.7-1.3,4.5-3.9,5.4-6.7,1.1-3.7,1.2-7.6,1.3-11.4h-5.8ZM408.7,102.5c0,6.5-1.1,11.3-6.8,11.3s-5.4-3.3-5.4-14.9c0-20.4,1.4-23.2,12.2-29.2v32.8Z"/>
    </g>
  </g>
</svg>