<svg viewBox="0 0 715.5 236.4" version="1.1" xmlns="http://www.w3.org/2000/svg">
  <defs>
    <style>
      .cls-1 {
        fill: #9aa6b2;
      }
    </style>
  </defs>
  
  <g>
    <g id="Ebene_1">
      <rect height="108.5" width="108.5" y="127.8" class="cls-1"></rect>
      <rect height="108.5" width="108.5" class="cls-1"></rect>
      <g>
        <path d="M440.9,189.7h11.7c0-4.1.2-11.3-.4-15.9-.4-3.2-1.8-6.1-5.2-6.1s-4.8,1.6-5.4,4.6c-.8,3.9-.6,11.1-.6,15.9v1.5ZM440.9,207.6c0,10.4,5.2,14.1,13,14.1s12.6-3,16.5-7.6v15.9c-3.4,3.4-13,8-24.1,8s-24.9-9.5-26.2-26.7c-.8-10.2-1.6-28.4,1-38.8,2.8-13,11.1-19.3,25.6-19.3s21.1,6.3,23.7,19.3c1.3,6.9.6,24.7.6,29.3v.6h-30.1v5.2Z" class="cls-1"></path>
        <polygon points="226 236.5 207.3 236.5 194.1 176.9 181.1 236.5 162.2 236.5 144.3 127.8 168.3 127.8 168.3 128.6 177.2 193.4 189.5 127.8 206.7 127.8 218.9 193.4 228.1 127.8 244.4 127.8 226 236.5" class="cls-1"></polygon>
        <path d="M269.6,238.2c-14.5,0-23.2-5.8-26.7-18.5-1.8-6.3-2.4-14.9-2.4-23.9s.4-17.3,2.4-23.7c3.7-12.6,12.6-19.1,26.7-19.1s23.2,6.3,26.5,19.1c1.6,5.8,2,14.1,2,23.7s-.4,17.7-2,23.9c-3.4,12.6-12.3,18.5-26.5,18.5M276.1,196c0-11.1-.4-17.3-.8-19.7-.8-5.4-2.4-7.2-6.1-7.2s-5,1.8-5.8,7.2c-.4,2.4-.8,8.7-.8,19.7s.4,17.3.8,19.7c.8,5.4,2.4,7.2,6.1,7.2s5-1.8,5.8-7.2c.4-2.4.8-8.7.8-19.7" class="cls-1"></path>
        <path d="M352,158.9v26h-11.9l-2.8-15.2c-1-.6-3-.8-3.7-.8-5.6,0-7.2,3.7-7.6,8.9-.4,7.8-.6,23.9,0,31.4.6,8.7,4.1,12.6,11.1,12.6s10.8-3.2,15.6-8.9v16.7c-3.4,3.4-11.1,8.5-21.7,8.5s-24.7-9.8-26.3-24.7c-1-11.1-1-22.5,0-33.8,1.8-17.3,11.5-26.2,26.5-26.2,7.1-.1,14.7,2.3,20.8,5.6" class="cls-1"></path>
        <path d="M413.3,236.5h-21.9v-61.4c0-3.9-2.2-6.1-5.4-6.1s-3.9.6-5.4,1.8v65.7h-21.9v-106.3l21.9-5.4v33.6c4.4-3.2,9.3-5.2,15.4-5.2,12.1,0,17.3,8.2,17.3,20.9v62.5h0Z" class="cls-1"></path>
      </g>
      <g>
        <rect height="18.1" width="21.7" y=".3" x="236.1" class="cls-1"></rect>
        <path d="M457.5,31.3v25.8h-11.8l-2.8-15c-1-.6-3-.8-3.6-.8-5.6,0-7.2,3.6-7.6,8.8-.4,7.8-.6,23.7,0,31.2.6,8.6,4,12.5,11,12.5s10.8-3.2,15.5-8.8v16.6c-3.4,3.4-11,8.4-21.6,8.4s-24.5-9.6-26-24.5c-1-11-1-23.2,0-34.4,1.8-17.2,11.4-25.2,26.3-25.2,7.3-.1,14.7,2.3,20.8,5.5" class="cls-1"></path>
        <path d="M343.5,93.4c3,0,6.4-1.8,9.2-4.3v14.6c-4,3-10.8,5.6-17.8,5.6-10.4,0-18.7-6-18.7-21.3V29.1l19.8-17.4h2v15.7h12.9v13.8h-13v46.7c0,4.6,2.6,5.6,5.6,5.6" class="cls-1"></path>
        <path d="M609,108.3h-21.7V41.1h-7.4v-13.7h7.4v-5c0-14.8,8-22.8,21.7-22.8s10.6.8,15.5,2.8v14.2c-3.2-1-6.4-2-8.8-2-5.6,0-7.8,2.6-7.8,7.8v5h14.3v13.8h-13.2v67Z" class="cls-1"></path>
        <path d="M287.9,108.3h-21.7v-60.4c0-7.8-.6-14.4-1.8-20.4h17.4l2.4,8c5.6-6.8,11-9.2,17.4-9.2s6.2.8,9,2.4v29.7h-11.8l-2-12.9c-4-1-9,0-9,7.1v55.8h0Z" class="cls-1"></path>
        <rect height="80.9" width="21.7" y="27.4" x="236.1" class="cls-1"></rect>
        <path d="M541.9,110.4c-5.6,0-10.2-2.2-13.8-6.8-2.4-3.2-4-8.6-4-16.6s.4-13.6,3.6-18.3c4-6.2,12-9.6,27.8-8.2v-10.6c0-6.8-3.2-9.4-9.2-9.4s-3.4.4-4.8,1l-2,13.2h-12v-22.4c5.8-3.8,15-6.6,22.8-6.6,15.9,0,25.8,7.1,25.8,23.7v38.3c0,6,.6,12.7,2.4,19.8v.8h-17.6l-2.4-6.4c-3.6,5.4-10.4,8.6-16.6,8.6M544,83c0,10.8,2.2,11.8,5.4,11.8s6-2.2,6-6.6v-15.8c-1.8-.4-3.2-.4-4.3-.4-5,0-7.2,2.2-7.2,11" class="cls-1"></path>
        <polygon points="213.8 108.3 195.3 108.3 182.1 48.9 169.3 108.3 150.5 108.3 132.6 .3 156.5 .3 156.5 .9 165.3 65.3 177.7 .3 194.7 .3 206.7 65.3 215.9 .3 232 .3 213.8 108.3" class="cls-1"></polygon>
        <path d="M687.7,109.2c-6,0-14.4-2-20-5.8v-22.8h11.4l2.2,13.8c1.8.4,3.8.6,5,.6,5.8,0,9.4-3.4,9.4-7.6,0-6.2-6.2-8.8-15-14.8-8.4-5.6-14-13.4-14-23.4s9.9-23.4,25.2-23.4,14.6,2.4,19.8,5.2v22.2h-11.6l-1.8-12.5c-5.8-1.6-12,0-12,6.6s6.6,8.6,13.6,12.9c8.8,5.6,15.7,12.7,15.7,25.6,0,12.2-10.6,23.4-27.8,23.4" class="cls-1"></path>
        <path d="M377.8,109.2c-6,0-14.4-2-20-5.8v-22.8h11.4l2.2,13.8c1.8.4,3.8.6,5,.6,5.8,0,9.4-3.4,9.4-7.6,0-6.2-6.2-8.8-15-14.8-8.4-5.6-14-13.4-14-23.4s9.9-23.4,25.2-23.4,14.6,2.4,19.8,5.2v22.2h-11.6l-1.8-12.5c-5.8-1.6-12,0-12,6.6s6.6,8.6,13.6,12.9c8.8,5.6,15.7,12.7,15.7,25.6-.1,12.2-10.6,23.4-27.8,23.4" class="cls-1"></path>
        <path d="M518.3,108.3h-21.7v-60.9c0-3.8-2.2-6-5.4-6s-3.8.6-5.4,1.8v65.2h-21.7V2.9l21.7-5.4V30.8c4.3-3.2,9.2-5.2,15.3-5.2,12,0,17.2,8.2,17.2,20.6v62Z" class="cls-1"></path>
        <path d="M653.8,93.4c3,0,6.4-1.8,9.2-4.3v14.6c-4,3-10.8,5.6-17.8,5.6-10.4,0-18.7-6-18.7-21.3V29.1l19.8-17.4h2v15.7h12.9v13.8h-12.9v46.7c0,4.6,2.5,5.6,5.5,5.6" class="cls-1"></path>
      </g>
    </g>
  </g>
</svg>