<?xml version="1.0" encoding="UTF-8"?>
<svg xmlns="http://www.w3.org/2000/svg" xmlns:svg="http://www.w3.org/2000/svg" xmlns:sodipodi="http://sodipodi.sourceforge.net/DTD/sodipodi-0.dtd" xmlns:rdf="http://www.w3.org/1999/02/22-rdf-syntax-ns#" xmlns:inkscape="http://www.inkscape.org/namespaces/inkscape" xmlns:dc="http://purl.org/dc/elements/1.1/" xmlns:cc="http://creativecommons.org/ns#" version="1.1" viewBox="0 0 2189.3 500">
  <defs>
    <style>
      .cls-1 {
        fill: #9aa6b2;
      }
    </style>
  </defs>
  <!-- Generator: Adobe Illustrator 28.6.0, SVG Export Plug-In . SVG Version: 1.1.0 Build 92)  -->
  <g>
    <g id="svg3209">
      <sodipodi:namedview id="base" bordercolor="#666666" borderopacity="1.0" fit-margin-bottom="0" fit-margin-left="0" fit-margin-right="0" fit-margin-top="0" inkscape:current-layer="layer1" inkscape:cx="1095.17" inkscape:cy="260" inkscape:document-units="px" inkscape:pageopacity="0.0" inkscape:pageshadow="2" inkscape:window-height="990" inkscape:window-maximized="1" inkscape:window-width="1680" inkscape:window-x="-4" inkscape:window-y="-4" inkscape:zoom="0.70797507" pagecolor="#ffffff" showgrid="false"/>
      <g id="layer1" inkscape:groupmode="layer" inkscape:label="Ebene 1">
        <g id="g170">
          <path id="path172" class="cls-1" d="M299.9,492.7h-42.9l-11.6-58.2c-16.7,34.9-36.4,65.5-96.8,65.5C39.3,500,0,400.3,0,256.2S26.2,0,158.7,0s135.4,109.9,140.5,164.5l-82.2,15.3c-8-53.9-13.8-93.2-57.5-93.2s-37.1,12.4-45.1,34.2c-10.9,32-11.7,101.9-11.7,140.5,0,116.4,15.3,152.1,57.5,152.1s52.4-12.4,53.1-96.1h-60.4v-80.8h147v256.2Z" inkscape:connector-curvature="0"/>
        </g>
        <g id="g174">
          <path id="path176" class="cls-1" d="M315.9,7.3h99.7v395.9h123v89.5h-222.7s0-485.4,0-485.4Z" inkscape:connector-curvature="0"/>
        </g>
        <g id="g178">
          <g id="g180">
            <g id="g186">
              <path id="path188" class="cls-1" d="M669.2,309.3l26.2-133.9c5.8-29.8,8.7-56.8,11.6-77.2,2.2,43.7,5.8,61.9,10.2,81.5l26.9,129.6h-75ZM661.9,7.3l-111.4,485.4h89.5l18.9-104.8h96.1l19.6,104.8h100.4L765.2,7.3s-103.3,0-103.3,0Z" inkscape:connector-curvature="0"/>
            </g>
            <g id="g190">
              <path id="path192" class="cls-1" d="M883.1,7.3h136.8l37.1,204.5c8.7,45.1,12.4,95.3,15.3,139,3.6-53.1,14.6-123,20.4-149.2l41.5-194.3h133.9v485.4h-95.3V216.2c0-31.3.7-51.7,5.1-147-4.4,31.3-16,117.2-21.1,142.7l-58.9,280.9h-62.6l-56.8-285.3c-6.5-33.5-13.8-92.4-18.9-138.3.7,37.8,2.9,97.5,2.9,135.4v288.2h-79.3V7.3Z" inkscape:connector-curvature="0"/>
            </g>
            <g id="g194">
              <path id="path196" class="cls-1" d="M1433.5,86.6c18.9,0,29.8,7.3,37.8,31.3,9.5,29.1,9.5,97.5,9.5,127.4s0,91.7-5.8,125.2c-4.4,25.5-12.4,42.9-39.3,42.9s-33.5-16-38.6-35.7c-8.7-34.2-8.7-81.5-8.7-123,0-61.1,1.5-113.5,10.2-137.6,8-21.8,19.6-30.6,34.9-30.6M1435.7,0C1321.5,0,1282.9,96.1,1282.9,244.5s9.5,149.2,40.7,200.1c5.8,9.5,34.2,55.3,109.9,55.3,120.1,0,152.8-103.4,152.8-246.7S1552.9,0,1435.7,0" inkscape:connector-curvature="0"/>
            </g>
            <g id="g198">
              <path id="path200" class="cls-1" d="M1703.3,7.3v309.3c0,60.4,5.1,94.6,49.5,94.6s48-42.9,48-99.7V7.3h84.4v304.2c0,85.9-5.1,188.5-139,188.5s-142.7-56-142.7-180.5V7.3h99.7Z" inkscape:connector-curvature="0"/>
            </g>
            <g id="g202">
              <path id="path204" class="cls-1" d="M1998.7,83.7h27.7c32,0,53.8,16.7,53.8,67s-15.3,71.3-53.8,71.3h-27.7V83.7ZM1901.1,492.7h97.5v-190.7h31.3l54.6,190.7h104.8l-73.5-210.3c22.6-13.8,63.3-39.3,63.3-131s0-75.7-45.1-117.9c-25.5-23.3-55.3-26.2-107.7-26.2h-125.2v485.4h0Z" inkscape:connector-curvature="0"/>
            </g>
          </g>
        </g>
      </g>
    </g>
  </g>
</svg>