<svg viewBox="0 0 420.1 204.6" version="1.1" xmlns="http://www.w3.org/2000/svg">
  <defs>
    <style>
      .cls-1 {
        fill: #9aa6b2;
      }
    </style>
  </defs>
  
  <g>
    <g id="Ebene_1">
      <path d="M392.2,161.1h0s18.9-24.2,19-56.4c.2-63.2-44.1-104-105.9-104.1-35.8,0-68.8,19-85.7,41.8-13,17.6-16.6,32.6-17.3,44.3h-94.3v46.7h28.8c0,4.7-13.3,14.3-33.3,14.3s-46.9-17.3-47.4-45.1c-.5-28.8,24.4-47.7,47.4-46.9,18.7.7,25.8,6,36.2,16.3,0,0,60.6,0,62.1,0-1.8-6.9-6.3-17.4-13.9-28.3-.6-.9-1.3-1.8-2-2.7C170.6,20.7,144,0,102.7,0,54.2,0,16.7,32.4,4.4,72.1c-.1.5-.3,1-.4,1.4,0,0,0,0,0,0-2.5,8.9-3.9,18.3-3.9,28,0,9.3,1.3,18.2,3.5,26.5,7.8,29,28.1,52.9,54.8,65.7.2.1.4.2.6.3.1,0,.3.1.4.2,13.5,6.1,28.6,9.5,44.7,9.7,34.1-.3,64.2-17,82.8-42.5.3-.4,12.3-17.7,17.1-40.9,2.8,13.8,8.6,27.3,16.9,39.2,18,25.9,47.9,44.7,84.9,44.7,24.6,0,41.9-11.5,45.1-13.2l6.5,7.5h62.9l-27.9-37.8ZM353.9,116.7l-5.4-6.6h-63.8l25.9,36.8c-27,5.3-52.5-17.6-52.1-43.9.4-26.8,22-46.8,48-46.6,28.4.2,56.8,31,47.4,60.3Z" class="cls-1"></path>
    </g>
  </g>
</svg>