<svg height="31" viewBox="0 0 99 31" width="99" xmlns="http://www.w3.org/2000/svg">
    <g fill="none"><path d="m95.7848875 5.71631206c-1.6234727 0-2.6102894-1.06788248-2.6102894-2.60688957 0-1.50759878.9868167-2.60688956 2.6102894-2.60688956 1.6234726 0 2.6102893 1.06788247 2.6102893 2.60688956 0 1.50759879-.9868167 2.60688957-2.6102893 2.60688957zm0-5.71631206c-1.8144695 0-3.2151126 1.35055724-3.2151126 3.10942249s1.3688103 3.10942249 3.2151126 3.10942249c1.8144694 0 3.2151125-1.35055724 3.2151125-3.10942249s-1.4006431-3.10942249-3.2151125-3.10942249z" fill="#181716"></path><path d="m95.9758842 2.92097264h-.4774919v-.62816616h.4774919c.318328 0 .4456592.09422493.4456592.31408308 0 .18844985-.159164.31408308-.4456592.31408308zm1.2414791-.31408308c0-.69098277-.4774919-1.00506585-1.2096463-1.00506585h-1.5279742v2.82674772h.9868167v-.84802432h.318328l.4138263.84802432h1.0504823l-.5093247-1.00506586c.318328-.15704154.4774919-.37689969.4774919-.81661601z" fill="#181716"></path><path d="m79.7411576 21.6717325c-2.2919615 0-3.7881029-1.6960486-3.7881029-4.08308 0-2.3242148 1.4961414-4.0202634 3.7881029-4.0202634 2.2601286 0 3.7244373 1.6960486 3.7244373 4.0202634 0 2.3556231-1.4643087 4.08308-3.7244373 4.08308zm-18.399357 0c-2.2919614 0-3.7881029-1.6960486-3.7881029-4.08308 0-2.3242148 1.4961415-4.0202634 3.7881029-4.0202634 2.2601287 0 3.7244373 1.6960486 3.7244373 4.0202634-.0318328 2.3556231-1.4961414 4.08308-3.7244373 4.08308zm-18.9405144 0c-2.2919614 0-3.7881029-1.6960486-3.7881029-4.08308 0-2.3242148 1.4961415-4.0202634 3.7881029-4.0202634 2.2601286 0 3.7244373 1.6960486 3.7244373 4.0202634 0 2.3556231-1.4643087 4.08308-3.7244373 4.08308zm-32.3102894 2.6697062-.0318328.0628166c-.41382638.910841-1.24147911 1.4761905-2.29196143 1.4761905-1.2414791 0-2.16463022-.7852077-2.51479099-1.9473151h-5.25241158c.57299035 4.177305 3.53344051 7.0668693 7.86270096 7.0668693 2.00546624 0 3.75627014-.6281662 5.02958204-1.7902736.9868167-.9108409 1.6871382-2.1043566 1.7826366-2.2613981l7.226045-13.0344479h.0318328v12.845998h6.5575563v-12.0607903h3.9154341c-.2864952.910841-.4138264 1.8844985-.4138264 2.9209727 0 5.7477204 4.3929261 9.6109422 10.377492 9.6109422 4.3610932 0 7.9263665-2.1357649 9.4861736-5.5592705 1.5598071 3.4549139 5.1250804 5.5592705 9.5498392 5.5592705 4.3292605 0 7.862701-2.1043566 9.4543409-5.5278622 1.2414791 3.4235056 4.074598 5.3708207 7.5125402 5.3708207 3.8199357 0 5.6025723-2.3870314 5.8254019-2.7953394v2.449848h6.5893891v-25.37791286h-3.5334406c-1.7508038 0-3.1514469 1.38196556-3.1514469 3.1094225v6.31306986c-.2546624-.3454913-1.9099678-2.60688952-5.6980707-2.60688952-3.3742766 0-6.2392283 1.97872342-7.5125402 5.37082062-1.5598071-3.4235055-5.1250804-5.49645385-9.4543409-5.49645385-4.4247588 0-7.9900321 2.10435665-9.5498392 5.52786225-1.5598071-3.4549139-5.1250804-5.52786225-9.4861736-5.52786225-3.4379421 0-6.3665595 1.25633232-8.2446946 3.45491385v-2.35562307h-5.6344051v-2.04154002c0-.69098278.5729903-1.25633232 1.2733119-1.25633232h6.1437299v-5.81053698h-8.9131833c-2.7694534 0-5.029582 2.22998987-5.029582 4.96251266v4.08308004h-3.0877813c-1.0823151 0-2.0054663.65957447-2.5466238 1.57041539l-3.4061093 6.7527862-4.80675246-7.0040527c-.60482315-.81661596-1.55980707-1.28774058-2.54662379-1.28774058h-3.6926045c-1.05048232 0-1.68713827 1.16210738-1.08231512 2.04153998l9.19967847 13.1286728z" fill="#000"></path></g>
  </svg>